<svg width="252" height="39" viewBox="0 0 252 39" fill="none" xmlns="http://www.w3.org/2000/svg">
<path d="M59.7228 5.83467C62.8517 5.83467 65.1273 6.34667 66.5495 7.37067C67.9717 8.36622 68.6828 9.71733 68.6828 11.424C68.6828 12.9031 68.2135 14.24 67.2748 15.4347C66.3646 16.6293 65.1131 17.6391 63.5202 18.464C61.9273 19.2604 60.1211 19.8151 58.1015 20.128C61.1166 20.3556 63.3211 21.0951 64.7148 22.3467C66.1371 23.5982 66.8482 25.0916 66.8482 26.8267C66.8482 28.3627 66.4784 29.6996 65.7388 30.8373C65.0277 31.9751 64.0464 32.928 62.7948 33.696C61.5717 34.464 60.1353 35.0471 58.4855 35.4453C56.8357 35.8151 55.0864 36 53.2375 36C52.2704 36 51.2037 35.9858 50.0375 35.9573C48.8997 35.9004 47.4917 35.872 45.8135 35.872C45.1024 35.872 44.3628 35.8862 43.5948 35.9147C42.8268 35.9147 42.1015 35.9289 41.4188 35.9573C40.7362 35.9573 40.1531 35.9716 39.6695 36L39.8402 35.1467C40.8073 35.0898 41.5611 34.976 42.1015 34.8053C42.6419 34.6347 43.0686 34.2933 43.3815 33.7813C43.6944 33.2693 43.9788 32.5013 44.2348 31.4773L49.8668 10.3147C50.0659 9.46133 50.1797 8.77866 50.2082 8.26666C50.2366 7.72622 50.0375 7.328 49.6108 7.072C49.2126 6.78755 48.4588 6.64533 47.3495 6.64533L47.5628 5.792C48.0464 5.82044 48.6153 5.84889 49.2695 5.87733C49.9522 5.87733 50.6775 5.89155 51.4455 5.92C52.2135 5.92 52.9246 5.92 53.5788 5.92C54.8019 5.92 55.8828 5.90578 56.8215 5.87733C57.7886 5.84889 58.7557 5.83467 59.7228 5.83467ZM51.7442 20.6827L51.9148 19.9573H55.0722C56.6935 19.9573 58.0731 19.5449 59.2108 18.72C60.3771 17.8667 61.2588 16.7573 61.8562 15.392C62.4819 14.0267 62.7948 12.5902 62.7948 11.0827C62.7948 9.66044 62.5104 8.56533 61.9415 7.79733C61.4011 7.02933 60.4482 6.64533 59.0828 6.64533C58.0873 6.64533 57.3762 6.84444 56.9495 7.24266C56.5228 7.61244 56.1531 8.42311 55.8402 9.67466L50.0802 31.4773C49.9095 32.1884 49.7957 32.8142 49.7388 33.3547C49.7104 33.8951 49.8526 34.3076 50.1655 34.592C50.4784 34.8764 51.0615 35.0187 51.9148 35.0187C53.9344 35.0187 55.5842 34.6347 56.8642 33.8667C58.1442 33.0987 59.0971 32.0462 59.7228 30.7093C60.3486 29.344 60.6615 27.808 60.6615 26.1013C60.6615 25.0489 60.4766 24.1244 60.1068 23.328C59.7655 22.5031 59.2108 21.8631 58.4428 21.408C57.6748 20.9244 56.6508 20.6827 55.3708 20.6827H51.7442ZM76.9478 6.64533C77.0332 5.59289 77.4598 4.75378 78.2278 4.128C78.9958 3.50222 79.8918 3.18933 80.9158 3.18933C81.8545 3.18933 82.5656 3.45955 83.0492 4C83.5612 4.512 83.7745 5.18044 83.6892 6.00533C83.6038 6.97244 83.1772 7.78311 82.4092 8.43733C81.6412 9.09155 80.7452 9.41866 79.7212 9.41866C78.7825 9.41866 78.0572 9.16266 77.5452 8.65066C77.0616 8.11022 76.8625 7.44178 76.9478 6.64533ZM75.4545 17.6107C75.9665 16.0747 75.7958 15.3067 74.9425 15.3067C74.3736 15.3067 73.8616 15.6053 73.4065 16.2027C72.9514 16.7716 72.4678 17.696 71.9558 18.976L71.2305 20.9813H70.4198L71.5292 17.7813C71.9558 16.6436 72.4678 15.7618 73.0652 15.136C73.6625 14.4818 74.3309 14.0267 75.0705 13.7707C75.8101 13.5147 76.5354 13.3867 77.2465 13.3867C78.2421 13.3867 78.9958 13.5716 79.5078 13.9413C80.0198 14.3111 80.3612 14.7947 80.5318 15.392C80.7025 15.9893 80.7452 16.6436 80.6598 17.3547C80.5745 18.0373 80.4181 18.7058 80.1905 19.36L75.6678 32.3733C75.4118 33.1413 75.3407 33.7244 75.4545 34.1227C75.5683 34.4924 75.8385 34.6773 76.2652 34.6773C76.7203 34.6773 77.1754 34.4356 77.6305 33.952C78.1141 33.44 78.6261 32.4587 79.1665 31.008L79.8918 29.088H80.7025L79.6358 32.2027C79.2092 33.3404 78.6972 34.2364 78.0998 34.8907C77.5025 35.5164 76.8483 35.9573 76.1372 36.2133C75.4261 36.4693 74.7292 36.5973 74.0465 36.5973C72.7949 36.5973 71.8847 36.3271 71.3158 35.7867C70.7469 35.2178 70.4625 34.4498 70.4625 33.4827C70.4625 32.4871 70.6901 31.3493 71.1452 30.0693L75.4545 17.6107ZM85.2692 35.36C85.4967 35.4738 85.7385 35.5733 85.9945 35.6587C86.2505 35.7156 86.6061 35.744 87.0612 35.744C88.1421 35.744 89.0381 35.4027 89.7492 34.72C90.4887 34.0089 90.8585 33.0276 90.8585 31.776C90.8585 30.8658 90.6594 29.9413 90.2612 29.0027C89.8914 28.064 89.3225 27.0258 88.5545 25.888C87.8718 24.8924 87.2461 23.9111 86.6772 22.944C86.1367 21.9769 85.8665 20.8676 85.8665 19.616C85.8665 18.3929 86.1652 17.3262 86.7625 16.416C87.3598 15.4773 88.2132 14.7378 89.3225 14.1973C90.4318 13.6569 91.7261 13.3867 93.2052 13.3867C94.1723 13.3867 95.1252 13.5004 96.0638 13.728C97.0025 13.9556 97.7705 14.368 98.3678 14.9653C98.9652 15.5627 99.2638 16.4302 99.2638 17.568C99.2638 17.9662 99.1785 18.3929 99.0078 18.848C98.8372 19.2747 98.5812 19.6444 98.2398 19.9573C97.8985 20.2702 97.4434 20.4267 96.8745 20.4267C96.2772 20.4267 95.7794 20.1991 95.3812 19.744C94.9829 19.2604 94.7838 18.6489 94.7838 17.9093C94.7838 17.2551 94.8976 16.6436 95.1252 16.0747C95.3812 15.5058 95.6798 15.008 96.0212 14.5813C95.6229 14.3538 95.0541 14.24 94.3145 14.24C93.2905 14.24 92.4656 14.5671 91.8398 15.2213C91.2141 15.8756 90.9012 16.8 90.9012 17.9947C90.9012 18.6204 91.0007 19.2178 91.1998 19.7867C91.4274 20.3271 91.7261 20.896 92.0958 21.4933C92.4941 22.0622 92.9349 22.7307 93.4185 23.4987C94.2149 24.7787 94.8407 25.9307 95.2958 26.9547C95.7509 27.9502 95.9785 28.9742 95.9785 30.0267C95.9785 31.2782 95.6372 32.4018 94.9545 33.3973C94.3003 34.3929 93.3901 35.1751 92.2238 35.744C91.0576 36.3129 89.6923 36.5973 88.1278 36.5973C87.0185 36.5973 85.9518 36.4409 84.9278 36.128C83.9323 35.8436 83.1074 35.36 82.4532 34.6773C81.8274 33.9947 81.5145 33.056 81.5145 31.8613C81.5145 31.2071 81.6994 30.6098 82.0692 30.0693C82.4105 29.5004 82.9509 29.216 83.6905 29.216C84.4301 29.216 84.9847 29.5147 85.3545 30.112C85.7243 30.7093 85.9092 31.4489 85.9092 32.3307C85.9092 32.9564 85.8238 33.5396 85.6532 34.08C85.5109 34.592 85.3829 35.0187 85.2692 35.36ZM116.068 13.984L115.94 14.8373H101.647L101.86 13.984H116.068ZM105.7 32.3733C105.473 33.1698 105.501 33.7529 105.785 34.1227C106.098 34.4924 106.511 34.6773 107.023 34.6773C107.62 34.6773 108.217 34.3929 108.815 33.824C109.441 33.2551 110.009 32.2596 110.521 30.8373L111.161 29.088H111.972L111.119 31.648C110.521 33.4116 109.697 34.6773 108.644 35.4453C107.592 36.2133 106.34 36.5973 104.889 36.5973C103.609 36.5973 102.628 36.3129 101.945 35.744C101.291 35.1751 100.893 34.4071 100.751 33.44C100.637 32.4444 100.765 31.3209 101.135 30.0693L107.577 7.584C108.601 7.55555 109.554 7.49866 110.436 7.41333C111.346 7.328 112.2 7.18578 112.996 6.98667L105.7 32.3733ZM119.92 36H114.672L119.792 17.6107C120.048 16.7573 120.133 16.16 120.048 15.8187C119.963 15.4773 119.707 15.3067 119.28 15.3067C118.74 15.3067 118.242 15.5769 117.787 16.1173C117.332 16.6578 116.862 17.6107 116.379 18.976L115.653 20.9813H114.843L115.952 17.7813C116.35 16.6436 116.848 15.7618 117.445 15.136C118.043 14.4818 118.697 14.0267 119.408 13.7707C120.119 13.5147 120.845 13.3867 121.584 13.3867C122.494 13.3867 123.163 13.5716 123.589 13.9413C124.045 14.3111 124.329 14.7947 124.443 15.392C124.585 15.9893 124.613 16.6436 124.528 17.3547C124.471 18.0373 124.357 18.7058 124.187 19.36L119.92 36ZM130.843 14.368C130.217 14.368 129.577 14.5956 128.923 15.0507C128.269 15.4773 127.586 16.1742 126.875 17.1413C126.164 18.1084 125.438 19.3884 124.699 20.9813C123.988 22.5458 123.248 24.4658 122.48 26.7413C121.712 28.9884 120.944 31.648 120.176 34.72L121.2 29.0453C122.082 26.0587 122.907 23.5698 123.675 21.5787C124.471 19.5591 125.239 17.952 125.979 16.7573C126.747 15.5342 127.557 14.6667 128.411 14.1547C129.264 13.6427 130.189 13.3867 131.184 13.3867C132.208 13.3867 132.99 13.6853 133.531 14.2827C134.1 14.88 134.384 15.6196 134.384 16.5013C134.384 17.2124 134.213 17.8809 133.872 18.5067C133.531 19.104 133.076 19.5876 132.507 19.9573C131.966 20.2987 131.341 20.4693 130.629 20.4693C129.918 20.4693 129.349 20.2844 128.923 19.9147C128.525 19.5449 128.325 19.0044 128.325 18.2933C128.325 17.6676 128.468 17.0987 128.752 16.5867C129.037 16.0747 129.406 15.648 129.861 15.3067C130.317 14.9369 130.814 14.6809 131.355 14.5387C131.298 14.4818 131.227 14.4391 131.141 14.4107C131.056 14.3822 130.957 14.368 130.843 14.368ZM145.822 14.24C145.083 14.24 144.329 14.624 143.561 15.392C142.793 16.1316 142.067 17.1556 141.385 18.464C140.702 19.744 140.076 21.1804 139.507 22.7733C138.967 24.3662 138.54 26.016 138.227 27.7227C137.915 29.4009 137.758 31.008 137.758 32.544C137.758 33.6818 137.9 34.5067 138.185 35.0187C138.498 35.5022 138.953 35.744 139.55 35.744C140.261 35.744 141.001 35.3742 141.769 34.6347C142.537 33.8951 143.262 32.8996 143.945 31.648C144.656 30.368 145.282 28.9458 145.822 27.3813C146.363 25.7884 146.789 24.1387 147.102 22.432C147.415 20.7253 147.571 19.0613 147.571 17.44C147.571 16.2453 147.415 15.4204 147.102 14.9653C146.818 14.4818 146.391 14.24 145.822 14.24ZM132.723 29.6853C132.723 28.4053 132.894 27.0258 133.235 25.5467C133.605 24.0676 134.146 22.6169 134.857 21.1947C135.568 19.744 136.45 18.4356 137.502 17.2693C138.583 16.0747 139.835 15.136 141.257 14.4533C142.679 13.7422 144.286 13.3867 146.078 13.3867C148.126 13.3867 149.719 13.9698 150.857 15.136C152.023 16.2738 152.606 17.9947 152.606 20.2987C152.606 21.5787 152.421 22.9582 152.051 24.4373C151.71 25.9164 151.184 27.3813 150.473 28.832C149.762 30.2542 148.866 31.5627 147.785 32.7573C146.732 33.9236 145.495 34.8622 144.073 35.5733C142.651 36.256 141.043 36.5973 139.251 36.5973C137.203 36.5973 135.596 36.0142 134.43 34.848C133.292 33.6818 132.723 31.9609 132.723 29.6853ZM182.548 5.83467C185.677 5.83467 187.952 6.34667 189.375 7.37067C190.797 8.36622 191.508 9.71733 191.508 11.424C191.508 12.9031 191.039 14.24 190.1 15.4347C189.19 16.6293 187.938 17.6391 186.345 18.464C184.752 19.2604 182.946 19.8151 180.927 20.128C183.942 20.3556 186.146 21.0951 187.54 22.3467C188.962 23.5982 189.673 25.0916 189.673 26.8267C189.673 28.3627 189.303 29.6996 188.564 30.8373C187.853 31.9751 186.871 32.928 185.62 33.696C184.397 34.464 182.96 35.0471 181.311 35.4453C179.661 35.8151 177.911 36 176.063 36C175.095 36 174.029 35.9858 172.863 35.9573C171.725 35.9004 170.317 35.872 168.639 35.872C167.927 35.872 167.188 35.8862 166.42 35.9147C165.652 35.9147 164.927 35.9289 164.244 35.9573C163.561 35.9573 162.978 35.9716 162.495 36L162.665 35.1467C163.632 35.0898 164.386 34.976 164.927 34.8053C165.467 34.6347 165.894 34.2933 166.207 33.7813C166.519 33.2693 166.804 32.5013 167.06 31.4773L172.692 10.3147C172.891 9.46133 173.005 8.77866 173.033 8.26666C173.062 7.72622 172.863 7.328 172.436 7.072C172.038 6.78755 171.284 6.64533 170.175 6.64533L170.388 5.792C170.871 5.82044 171.44 5.84889 172.095 5.87733C172.777 5.87733 173.503 5.89155 174.271 5.92C175.039 5.92 175.75 5.92 176.404 5.92C177.627 5.92 178.708 5.90578 179.647 5.87733C180.614 5.84889 181.581 5.83467 182.548 5.83467ZM174.569 20.6827L174.74 19.9573H177.897C179.519 19.9573 180.898 19.5449 182.036 18.72C183.202 17.8667 184.084 16.7573 184.681 15.392C185.307 14.0267 185.62 12.5902 185.62 11.0827C185.62 9.66044 185.335 8.56533 184.767 7.79733C184.226 7.02933 183.273 6.64533 181.908 6.64533C180.912 6.64533 180.201 6.84444 179.775 7.24266C179.348 7.61244 178.978 8.42311 178.665 9.67466L172.905 31.4773C172.735 32.1884 172.621 32.8142 172.564 33.3547C172.535 33.8951 172.678 34.3076 172.991 34.592C173.303 34.8764 173.887 35.0187 174.74 35.0187C176.759 35.0187 178.409 34.6347 179.689 33.8667C180.969 33.0987 181.922 32.0462 182.548 30.7093C183.174 29.344 183.487 27.808 183.487 26.1013C183.487 25.0489 183.302 24.1244 182.932 23.328C182.591 22.5031 182.036 21.8631 181.268 21.408C180.5 20.9244 179.476 20.6827 178.196 20.6827H174.569ZM197.554 32.3733C197.327 33.1413 197.27 33.7244 197.384 34.1227C197.526 34.4924 197.81 34.6773 198.237 34.6773C198.635 34.6773 199.062 34.4356 199.517 33.952C200 33.44 200.512 32.4587 201.053 31.008L201.736 29.088H202.546L201.48 32.2027C201.081 33.3404 200.584 34.2364 199.986 34.8907C199.389 35.5164 198.749 35.9573 198.066 36.2133C197.384 36.4693 196.687 36.5973 195.976 36.5973C195.065 36.5973 194.34 36.4267 193.8 36.0853C193.259 35.744 192.889 35.2747 192.69 34.6773C192.491 34.08 192.42 33.3973 192.477 32.6293C192.534 31.8329 192.704 30.9796 192.989 30.0693L199.773 7.54133C200.057 6.57422 200.029 5.86311 199.688 5.408C199.346 4.95289 198.479 4.72533 197.085 4.72533L197.384 3.82933C199.232 3.80089 200.882 3.64444 202.333 3.36C203.784 3.04711 205.177 2.62044 206.514 2.08L197.554 32.3733ZM211.873 6.64533C211.958 5.59289 212.385 4.75378 213.153 4.128C213.921 3.50222 214.817 3.18933 215.841 3.18933C216.779 3.18933 217.491 3.45955 217.974 4C218.486 4.512 218.699 5.18044 218.614 6.00533C218.529 6.97244 218.102 7.78311 217.334 8.43733C216.566 9.09155 215.67 9.41866 214.646 9.41866C213.707 9.41866 212.982 9.16266 212.47 8.65066C211.987 8.11022 211.787 7.44178 211.873 6.64533ZM210.379 17.6107C210.891 16.0747 210.721 15.3067 209.867 15.3067C209.299 15.3067 208.787 15.6053 208.331 16.2027C207.876 16.7716 207.393 17.696 206.881 18.976L206.155 20.9813H205.345L206.454 17.7813C206.881 16.6436 207.393 15.7618 207.99 15.136C208.587 14.4818 209.256 14.0267 209.995 13.7707C210.735 13.5147 211.46 13.3867 212.171 13.3867C213.167 13.3867 213.921 13.5716 214.433 13.9413C214.945 14.3111 215.286 14.7947 215.457 15.392C215.627 15.9893 215.67 16.6436 215.585 17.3547C215.499 18.0373 215.343 18.7058 215.115 19.36L210.593 32.3733C210.337 33.1413 210.266 33.7244 210.379 34.1227C210.493 34.4924 210.763 34.6773 211.19 34.6773C211.645 34.6773 212.1 34.4356 212.555 33.952C213.039 33.44 213.551 32.4587 214.091 31.008L214.817 29.088H215.627L214.561 32.2027C214.134 33.3404 213.622 34.2364 213.025 34.8907C212.427 35.5164 211.773 35.9573 211.062 36.2133C210.351 36.4693 209.654 36.5973 208.971 36.5973C207.72 36.5973 206.81 36.3271 206.241 35.7867C205.672 35.2178 205.387 34.4498 205.387 33.4827C205.387 32.4871 205.615 31.3493 206.07 30.0693L210.379 17.6107ZM220.194 35.36C220.422 35.4738 220.664 35.5733 220.92 35.6587C221.176 35.7156 221.531 35.744 221.986 35.744C223.067 35.744 223.963 35.4027 224.674 34.72C225.414 34.0089 225.784 33.0276 225.784 31.776C225.784 30.8658 225.584 29.9413 225.186 29.0027C224.816 28.064 224.248 27.0258 223.48 25.888C222.797 24.8924 222.171 23.9111 221.602 22.944C221.062 21.9769 220.792 20.8676 220.792 19.616C220.792 18.3929 221.09 17.3262 221.688 16.416C222.285 15.4773 223.138 14.7378 224.248 14.1973C225.357 13.6569 226.651 13.3867 228.13 13.3867C229.097 13.3867 230.05 13.5004 230.989 13.728C231.928 13.9556 232.696 14.368 233.293 14.9653C233.89 15.5627 234.189 16.4302 234.189 17.568C234.189 17.9662 234.104 18.3929 233.933 18.848C233.762 19.2747 233.506 19.6444 233.165 19.9573C232.824 20.2702 232.368 20.4267 231.8 20.4267C231.202 20.4267 230.704 20.1991 230.306 19.744C229.908 19.2604 229.709 18.6489 229.709 17.9093C229.709 17.2551 229.823 16.6436 230.05 16.0747C230.306 15.5058 230.605 15.008 230.946 14.5813C230.548 14.3538 229.979 14.24 229.24 14.24C228.216 14.24 227.391 14.5671 226.765 15.2213C226.139 15.8756 225.826 16.8 225.826 17.9947C225.826 18.6204 225.926 19.2178 226.125 19.7867C226.352 20.3271 226.651 20.896 227.021 21.4933C227.419 22.0622 227.86 22.7307 228.344 23.4987C229.14 24.7787 229.766 25.9307 230.221 26.9547C230.676 27.9502 230.904 28.9742 230.904 30.0267C230.904 31.2782 230.562 32.4018 229.88 33.3973C229.225 34.3929 228.315 35.1751 227.149 35.744C225.983 36.3129 224.617 36.5973 223.053 36.5973C221.944 36.5973 220.877 36.4409 219.853 36.128C218.857 35.8436 218.032 35.36 217.378 34.6773C216.752 33.9947 216.44 33.056 216.44 31.8613C216.44 31.2071 216.624 30.6098 216.994 30.0693C217.336 29.5004 217.876 29.216 218.616 29.216C219.355 29.216 219.91 29.5147 220.28 30.112C220.649 30.7093 220.834 31.4489 220.834 32.3307C220.834 32.9564 220.749 33.5396 220.578 34.08C220.436 34.592 220.308 35.0187 220.194 35.36ZM237.169 35.36C237.397 35.4738 237.638 35.5733 237.894 35.6587C238.15 35.7156 238.506 35.744 238.961 35.744C240.042 35.744 240.938 35.4027 241.649 34.72C242.389 34.0089 242.758 33.0276 242.758 31.776C242.758 30.8658 242.559 29.9413 242.161 29.0027C241.791 28.064 241.222 27.0258 240.454 25.888C239.772 24.8924 239.146 23.9111 238.577 22.944C238.037 21.9769 237.766 20.8676 237.766 19.616C237.766 18.3929 238.065 17.3262 238.662 16.416C239.26 15.4773 240.113 14.7378 241.222 14.1973C242.332 13.6569 243.626 13.3867 245.105 13.3867C246.072 13.3867 247.025 13.5004 247.964 13.728C248.902 13.9556 249.67 14.368 250.268 14.9653C250.865 15.5627 251.164 16.4302 251.164 17.568C251.164 17.9662 251.078 18.3929 250.908 18.848C250.737 19.2747 250.481 19.6444 250.14 19.9573C249.798 20.2702 249.343 20.4267 248.774 20.4267C248.177 20.4267 247.679 20.1991 247.281 19.744C246.883 19.2604 246.684 18.6489 246.684 17.9093C246.684 17.2551 246.798 16.6436 247.025 16.0747C247.281 15.5058 247.58 15.008 247.921 14.5813C247.523 14.3538 246.954 14.24 246.214 14.24C245.19 14.24 244.366 14.5671 243.74 15.2213C243.114 15.8756 242.801 16.8 242.801 17.9947C242.801 18.6204 242.901 19.2178 243.1 19.7867C243.327 20.3271 243.626 20.896 243.996 21.4933C244.394 22.0622 244.835 22.7307 245.318 23.4987C246.115 24.7787 246.741 25.9307 247.196 26.9547C247.651 27.9502 247.878 28.9742 247.878 30.0267C247.878 31.2782 247.537 32.4018 246.854 33.3973C246.2 34.3929 245.29 35.1751 244.124 35.744C242.958 36.3129 241.592 36.5973 240.028 36.5973C238.918 36.5973 237.852 36.4409 236.828 36.128C235.832 35.8436 235.007 35.36 234.353 34.6773C233.727 33.9947 233.414 33.056 233.414 31.8613C233.414 31.2071 233.599 30.6098 233.969 30.0693C234.31 29.5004 234.851 29.216 235.59 29.216C236.33 29.216 236.885 29.5147 237.254 30.112C237.624 30.7093 237.809 31.4489 237.809 32.3307C237.809 32.9564 237.724 33.5396 237.553 34.08C237.411 34.592 237.283 35.0187 237.169 35.36Z" fill="#474747"/>
</svg>
